<?xml version="1.0" encoding="UTF-8"?>
<svg id="Calque_2" data-name="Calque 2" xmlns="http://www.w3.org/2000/svg" viewBox="0 0 489.63 268.52">
  <defs>
    <style>
      .cls-1 {
        fill: #fff;
      }

      .cls-2 {
        fill: #ffb703;
      }

      .cls-3 {
        fill: #023047;
        fill-rule: evenodd;
      }
    </style>
  </defs>
  <g id="Calque_1-2" data-name="Calque 1">
    <g>
      <path class="cls-2" d="M206.97,81.08V17.16h38.35v14.85h-21.9v11.19h20.02v14.19h-20.02v23.69h-16.45Z"/>
      <path class="cls-2" d="M284.14,82.58c-4.58,0-8.81-.83-12.69-2.49-3.89-1.66-7.24-4-10.06-7s-5.01-6.56-6.58-10.67c-1.57-4.1-2.35-8.57-2.35-13.4s.78-9.27,2.35-13.35c1.57-4.07,3.76-7.6,6.58-10.58,2.82-2.98,6.17-5.29,10.06-6.96,3.88-1.66,8.12-2.49,12.69-2.49s8.79,.83,12.64,2.49c3.85,1.66,7.21,3.98,10.06,6.96,2.85,2.98,5.06,6.5,6.63,10.58,1.57,4.07,2.35,8.52,2.35,13.35s-.78,9.29-2.35,13.4c-1.57,4.11-3.78,7.66-6.63,10.67-2.85,3.01-6.2,5.34-10.06,7-3.85,1.66-8.07,2.49-12.64,2.49Zm0-15.23c3.07,0,5.7-.77,7.9-2.3,2.19-1.54,3.9-3.68,5.12-6.44,1.22-2.76,1.83-5.95,1.83-9.59s-.61-6.8-1.83-9.49c-1.22-2.69-2.93-4.81-5.12-6.35-2.19-1.53-4.83-2.3-7.9-2.3s-5.62,.75-7.85,2.26c-2.23,1.5-3.95,3.62-5.17,6.34-1.22,2.73-1.83,5.91-1.83,9.54s.61,6.83,1.83,9.59c1.22,2.76,2.94,4.9,5.17,6.44,2.22,1.54,4.84,2.3,7.85,2.3Z"/>
      <path class="cls-2" d="M353.33,82.58c-4.58,0-8.8-.83-12.69-2.49-3.89-1.66-7.24-4-10.06-7-2.82-3.01-5.01-6.56-6.58-10.67-1.57-4.1-2.35-8.57-2.35-13.4s.78-9.27,2.35-13.35c1.57-4.07,3.76-7.6,6.58-10.58,2.82-2.98,6.17-5.29,10.06-6.96,3.88-1.66,8.11-2.49,12.69-2.49s8.79,.83,12.64,2.49c3.85,1.66,7.21,3.98,10.06,6.96,2.85,2.98,5.06,6.5,6.63,10.58,1.57,4.07,2.35,8.52,2.35,13.35s-.78,9.29-2.35,13.4c-1.57,4.11-3.78,7.66-6.63,10.67s-6.2,5.34-10.06,7c-3.86,1.66-8.07,2.49-12.64,2.49Zm0-15.23c3.07,0,5.7-.77,7.9-2.3,2.19-1.54,3.9-3.68,5.12-6.44,1.22-2.76,1.83-5.95,1.83-9.59s-.61-6.8-1.83-9.49c-1.22-2.69-2.93-4.81-5.12-6.35-2.19-1.53-4.83-2.3-7.9-2.3s-5.62,.75-7.85,2.26c-2.22,1.5-3.95,3.62-5.17,6.34-1.22,2.73-1.83,5.91-1.83,9.54s.61,6.83,1.83,9.59c1.22,2.76,2.95,4.9,5.17,6.44,2.22,1.54,4.84,2.3,7.85,2.3Z"/>
      <path class="cls-2" d="M394.03,81.08V17.16h22.75c4.64,0,8.9,.8,12.78,2.4,3.88,1.6,7.27,3.84,10.15,6.72,2.88,2.88,5.12,6.25,6.72,10.1,1.6,3.85,2.4,8.07,2.4,12.64s-.8,8.81-2.4,12.69c-1.6,3.89-3.84,7.28-6.72,10.2-2.88,2.91-6.27,5.17-10.15,6.77-3.89,1.6-8.15,2.4-12.78,2.4h-22.75Zm22.75-49.07h-6.3v34.22h6.3c3.13,0,5.86-.75,8.18-2.26,2.32-1.5,4.1-3.56,5.36-6.16,1.25-2.6,1.88-5.53,1.88-8.79s-.63-6.17-1.88-8.74c-1.25-2.57-3.04-4.59-5.36-6.06-2.32-1.47-5.04-2.21-8.18-2.21Z"/>
    </g>
    <g>
      <path class="cls-2" d="M218.16,163.08v-48.97h-14.48v-14.95h45.31v14.95h-14.38v48.97h-16.45Z"/>
      <path class="cls-2" d="M257.92,163.08v-63.92h22.65c4.76,0,8.93,.89,12.5,2.68,3.57,1.79,6.34,4.29,8.32,7.52,1.97,3.23,2.96,7,2.96,11.33,0,3.7-.75,6.99-2.26,9.87-1.5,2.88-3.54,5.23-6.11,7.05,2.5,4.2,5.03,8.45,7.57,12.74,2.54,4.29,5.06,8.54,7.57,12.74h-18.42c-1.94-3.51-3.9-7.08-5.88-10.72-1.97-3.63-3.96-7.21-5.97-10.72h-6.49v21.43h-16.45Zm22.65-49.07h-6.2v13.91h7.14c1.88,0,3.42-.67,4.61-2.02,1.19-1.35,1.79-2.99,1.79-4.94s-.64-3.67-1.93-4.98c-1.29-1.32-3.09-1.97-5.4-1.97Z"/>
      <path class="cls-2" d="M367.8,138.83c0,3.95-.67,7.5-2.02,10.67-1.35,3.17-3.23,5.88-5.64,8.13-2.41,2.26-5.23,3.98-8.46,5.17-3.23,1.19-6.72,1.79-10.48,1.79s-7.33-.6-10.53-1.79-5.97-2.9-8.32-5.12c-2.35-2.22-4.18-4.9-5.5-8.04-1.32-3.13-1.97-6.67-1.97-10.62v-39.86h16.45v38.92c0,3.38,.94,6.11,2.82,8.18,1.88,2.07,4.29,3.1,7.24,3.1s5.34-1.03,7.19-3.1c1.85-2.07,2.77-4.79,2.77-8.18v-38.92h16.45v39.67Z"/>
      <path class="cls-2" d="M375.89,131.12c0-4.83,.77-9.23,2.3-13.21,1.54-3.98,3.71-7.44,6.53-10.39,2.82-2.94,6.2-5.23,10.15-6.86,3.95-1.63,8.32-2.51,13.11-2.63,4.79-.12,9.92,.63,15.37,2.26v15.89c-3.7-1.75-7.36-2.76-11-3.01-3.63-.25-6.92,.25-9.87,1.5-2.95,1.25-5.3,3.24-7.05,5.97-1.75,2.73-2.63,6.22-2.63,10.48s.88,7.75,2.63,10.48c1.75,2.73,4.1,4.72,7.05,5.97,2.95,1.25,6.24,1.75,9.87,1.5,3.63-.25,7.3-1.25,11-3.01v15.89c-5.45,1.63-10.58,2.38-15.37,2.26-4.79-.13-9.17-1-13.11-2.63-3.95-1.63-7.33-3.92-10.15-6.86-2.82-2.94-5-6.41-6.53-10.39-1.54-3.98-2.3-8.38-2.3-13.21Z"/>
      <path class="cls-2" d="M434.17,163.08v-63.92h16.45v24.72c3.2-4.07,6.41-8.19,9.64-12.36,3.23-4.17,6.44-8.29,9.63-12.36h18.61c-3.95,5.01-7.94,10.07-11.99,15.18-4.04,5.11-8.04,10.17-11.99,15.18,4.14,5.52,8.32,11.09,12.55,16.73,4.23,5.64,8.41,11.25,12.55,16.83h-19.65c-3.2-4.45-6.42-8.91-9.68-13.39-3.26-4.48-6.49-8.91-9.68-13.3v26.7h-16.45Z"/>
    </g>
    <g>
      <path class="cls-1" d="M206.97,245.08v-63.92h23.5c1.82,6.39,3.62,12.86,5.41,19.41,1.79,6.55,3.56,13.02,5.31,19.41,1.75-6.39,3.53-12.86,5.31-19.41,1.79-6.55,3.56-13.02,5.31-19.41h23.22c.06,10.53,.12,21.18,.19,31.96,.06,10.78,.12,21.43,.19,31.96h-15.89v-43.33c-1.88,7.14-3.79,14.37-5.73,21.67-1.94,7.3-3.85,14.52-5.73,21.67h-14.29c-1.88-7.02-3.76-14.11-5.64-21.29-1.88-7.17-3.76-14.27-5.64-21.29v42.58h-15.51Z"/>
      <path class="cls-1" d="M281.51,245.08c3.26-10.53,6.53-21.18,9.82-31.96,3.29-10.78,6.56-21.43,9.82-31.96h22.47c3.26,10.53,6.53,21.18,9.82,31.96,3.29,10.78,6.56,21.43,9.82,31.96h-16.54c-.63-2-1.22-4.03-1.79-6.06-.56-2.04-1.16-4.06-1.79-6.06h-21.53c-.63,2.01-1.22,4.03-1.79,6.06-.56,2.04-1.16,4.06-1.79,6.06h-16.54Zm24.25-26.13h13.25c-1.07-3.7-2.16-7.43-3.29-11.19-1.13-3.76-2.23-7.49-3.29-11.19-1.07,3.7-2.18,7.43-3.34,11.19-1.16,3.76-2.27,7.49-3.34,11.19Z"/>
      <path class="cls-1" d="M349.38,245.08v-63.92h23.31c4.83,0,9.02,.92,12.6,2.77,3.57,1.85,6.36,4.43,8.37,7.76,2,3.32,3.01,7.21,3.01,11.66s-.99,8.24-2.96,11.56c-1.97,3.32-4.67,5.89-8.08,7.71-3.42,1.82-7.29,2.73-11.61,2.73h-8.18v19.74h-16.45Zm23.31-49.16h-6.86v15.13h7.8c1.94,0,3.52-.72,4.75-2.16,1.22-1.44,1.83-3.23,1.83-5.36s-.66-4.01-1.97-5.45c-1.32-1.44-3.17-2.16-5.55-2.16Z"/>
    </g>
    <g>
      <path class="cls-2" d="M183.6,69.1c23.99,88.99-42.98,199.42-42.98,199.42,0,0-113.37-61.69-137.39-150.8C-5.46,85.5,3.7,51.09,27.26,27.46,50.83,3.83,85.21-5.44,117.45,3.15c32.24,8.59,57.46,33.73,66.15,65.95h0Z"/>
      <g>
        <path class="cls-3" d="M164.26,83.42c-4.83,8.65-20.26,5.28-27.61,1.2-1.09-.63-2.33-.47-3.05,.27-2.75,2.76-6.63,4.73-11.94,6.16-4.8,1.29-10.26,1.48-14.02,.47-1.77-.44-3.3,.71-3.4,2.39-.25,12.01-15.23,14.4-24.38,8.41-1.13-.8-2.38-.65-3.27,.15-2.87,2.98-7.56,5.35-12.53,6.69-5.65,1.52-12.27,2.2-15.39,.84-2.69,.91-14.28,14.51-21.02,8.61-1.85-2.08-.44-7.78,4.48-14.07l119.41-32.19c2.31,1.76,14.39,5.68,12.73,11.09h0Z"/>
        <path class="cls-3" d="M84.36,120.39l-37,7.95c-4.42,.64-7.56-1.45-9.48-5.16,4.44-1.93,8.04-4.93,11.56-8.26,4.2,1.26,9.83,1.02,15.66-.55l19.26,6.02Z"/>
        <path class="cls-3" d="M123,96.01c4.63-1.25,9.11-3.01,12.72-6,6.95,3.27,16.4,4.95,23.6,3.01,.22,2.88-1.37,5.15-4.06,6.06l-37.73,12.74,5.48-15.81h0Z"/>
        <path class="cls-3" d="M110,117.34c-1.07,2.86-4.18,4.25-7.12,3.57l-29.96-9.57c2.26-1.16,4.13-2.4,5.78-3.76,11.26,6.34,27.82,2.98,30.45-10.41,2.46,.26,5.21,.25,7.87-.1l-7.03,20.27Z"/>
        <path class="cls-3" d="M160.54,115.3c-36.82,10.66-73.7,20.42-111.23,29.8-8.02,1.61-10.15-9.02-3.83-11.46,14.02-3.23,32.82-5.72,48.93-10.07,8.44,2.69,16.93,5.54,20.95-5.46,9.24-3.23,35.25-11.71,43.24-14.78,6.71-.34,8.97,10.08,1.94,11.97h0Z"/>
        <path class="cls-3" d="M146.77,146.02l-70.07,18.89c-11.99,3.23-24.38-3.17-29.18-14.19,10.17-1.82,101.65-26.48,117.14-31.76,1.6,12.06-5.89,23.82-17.88,27.06h0Z"/>
        <path class="cls-3" d="M32.43,95.43c-7.62-28.27,12.29-57.34,45.19-66.21s64.17,4.2,73.22,37.78l-117.52,31.68-.88-3.25Z"/>
      </g>
    </g>
  </g>
</svg>