<svg width="24" height="24" viewBox="0 0 24 24" fill="none" xmlns="http://www.w3.org/2000/svg">
<path d="M23.3455 20.2909L18.1091 15.0545C19.0909 13.5273 19.6364 11.7818 19.6364 9.81818C19.6364 4.36364 15.2727 0 9.81818 0C4.36364 0 0 4.36364 0 9.81818C0 15.2727 4.36364 19.6364 9.81818 19.6364C11.7818 19.6364 13.5273 19.0909 15.0545 18.1091L20.2909 23.3455C20.7273 23.7818 21.2727 24 21.8182 24C23.0182 24 24 23.0182 24 21.8182C24 21.1636 23.7818 20.6182 23.3455 20.2909ZM4.36364 9.81818C4.36364 6.76364 6.76364 4.36364 9.81818 4.36364C12.8727 4.36364 15.2727 6.76364 15.2727 9.81818C15.2727 12.8727 12.8727 15.2727 9.81818 15.2727C6.76364 15.2727 4.36364 12.8727 4.36364 9.81818Z" fill="#023047"/>
</svg>
